<?xml version="1.0" standalone="no"?>
<!DOCTYPE svg PUBLIC "-//W3C//DTD SVG 20010904//EN"
 "http://www.w3.org/TR/2001/REC-SVG-20010904/DTD/svg10.dtd">
<svg version="1.0" xmlns="http://www.w3.org/2000/svg"
 width="2048.000000pt" height="2048.000000pt" viewBox="0 0 2048.000000 2048.000000"
 preserveAspectRatio="xMidYMid meet">

<g transform="translate(0.000000,2048.000000) scale(0.100000,-0.100000)"
fill="#fe2243" stroke="none">
<path d="M6486 20442 c-2 -1 -279 -2 -617 -2 -650 -1 -1032 -11 -1274 -35 -27
-3 -79 -7 -115 -10 -199 -16 -305 -26 -395 -40 -55 -8 -147 -21 -205 -29 -161
-22 -479 -95 -670 -155 -144 -44 -228 -74 -355 -126 -49 -20 -103 -42 -119
-48 -157 -63 -403 -197 -588 -320 -449 -299 -806 -619 -1073 -962 -141 -181
-220 -299 -390 -585 -18 -30 -58 -113 -90 -185 -31 -71 -72 -161 -90 -200 -18
-38 -45 -106 -59 -150 -15 -44 -38 -107 -51 -140 -45 -118 -81 -239 -123 -425
-37 -159 -42 -185 -57 -295 -8 -60 -22 -141 -30 -180 -8 -38 -22 -131 -31
-205 -8 -74 -20 -166 -24 -205 -5 -38 -14 -153 -20 -255 -6 -102 -13 -219 -15
-260 -3 -41 -8 -111 -11 -155 -8 -130 -11 -10019 -3 -10270 4 -126 12 -279 18
-340 6 -60 15 -202 22 -315 6 -113 15 -212 20 -222 5 -9 11 -49 14 -90 3 -40
8 -102 11 -138 7 -74 57 -376 80 -483 9 -40 17 -82 18 -94 2 -13 8 -28 13 -35
5 -7 10 -26 11 -43 1 -16 6 -41 12 -55 5 -14 16 -54 24 -90 12 -55 68 -223
129 -385 67 -179 251 -554 341 -695 123 -192 185 -281 238 -345 9 -11 68 -83
131 -160 277 -338 653 -653 1107 -926 293 -177 858 -405 1160 -468 295 -61
410 -82 528 -96 75 -8 146 -17 157 -20 65 -14 456 -47 665 -56 234 -10 1041
-20 1410 -18 2100 12 7168 10 7239 -3 24 -4 47 -5 53 -2 13 8 258 10 271 2 5
-3 18 -1 28 5 14 8 26 9 47 1 22 -9 35 -8 53 2 19 10 30 10 56 -1 22 -9 33
-10 33 -3 0 8 219 8 778 2 1108 -11 1212 -9 1387 32 33 7 132 23 220 34 283
37 693 112 787 146 22 8 48 14 58 14 31 0 254 77 340 117 47 22 128 57 180 78
199 79 394 185 600 325 25 17 74 49 110 72 36 23 119 85 184 137 65 53 146
117 180 143 115 87 360 339 573 589 174 203 345 463 503 764 35 68 166 371
178 415 5 19 28 85 51 145 85 228 173 591 201 830 6 50 15 106 20 125 5 19 19
132 31 250 17 167 23 311 28 645 11 797 4 10851 -8 10955 -6 52 -16 151 -21
220 -6 69 -14 154 -20 190 -5 36 -14 106 -20 155 -15 124 -30 223 -40 265 -4
19 -15 67 -25 105 -9 39 -19 83 -22 99 -5 29 -20 88 -63 251 -12 44 -25 84
-29 90 -5 5 -27 66 -50 135 -24 69 -55 152 -71 185 -15 33 -44 98 -64 145
-120 288 -410 741 -666 1040 -98 115 -367 386 -465 470 -186 158 -249 206
-410 314 -146 97 -500 306 -519 306 -4 0 -83 34 -175 75 -239 106 -432 175
-661 234 -211 54 -571 119 -770 137 -25 3 -112 11 -195 19 -240 23 -373 34
-485 40 -58 2 -154 7 -215 10 -87 5 -6269 10 -6325 6 -8 -1 -63 2 -122 5 -67
4 -113 2 -126 -5 -11 -6 -23 -7 -27 -3 -6 6 -2293 11 -2299 4z m2199 -3853
c182 -19 384 -62 565 -119 14 -4 52 -16 85 -25 172 -50 637 -257 696 -311 8
-8 20 -14 26 -14 5 0 18 -9 28 -20 10 -11 22 -20 26 -20 9 0 150 -95 188 -126
13 -10 42 -34 65 -53 150 -125 364 -382 458 -551 14 -25 42 -73 62 -107 20
-34 44 -81 55 -105 10 -24 34 -77 53 -118 41 -87 105 -273 142 -410 45 -164
47 -174 56 -210 17 -69 39 -166 50 -225 6 -33 15 -76 20 -95 22 -88 46 -258
65 -465 8 -88 19 -203 25 -255 5 -52 12 -194 15 -315 3 -121 7 -232 9 -247 2
-15 24 -50 50 -78 38 -44 91 -136 127 -225 8 -20 21 -78 39 -173 31 -161 -12
-511 -80 -659 -11 -24 -20 -46 -20 -49 0 -4 -17 -34 -37 -68 -80 -134 -202
-253 -314 -306 -70 -33 -61 -14 -124 -235 -52 -181 -61 -205 -157 -425 -104
-238 -146 -286 -544 -617 -95 -79 -167 -188 -213 -321 -47 -139 -78 -471 -56
-607 18 -112 29 -171 35 -180 4 -5 17 -43 30 -83 13 -40 38 -91 56 -115 19
-23 34 -48 34 -55 0 -7 -89 -101 -198 -210 -168 -167 -242 -247 -315 -342 -7
-9 -33 -43 -58 -75 -119 -155 -335 -519 -389 -655 -15 -40 -42 -102 -76 -178
-13 -29 -24 -57 -24 -62 0 -14 -29 -102 -40 -122 -6 -10 -10 -27 -10 -37 0
-11 -4 -23 -10 -26 -5 -3 -10 -15 -10 -26 0 -10 -4 -27 -9 -37 -6 -9 -21 -69
-36 -132 -14 -63 -30 -133 -35 -155 -5 -22 -14 -71 -20 -110 -6 -38 -15 -96
-21 -128 -27 -153 -38 -601 -19 -785 31 -303 84 -590 143 -772 8 -25 26 -85
41 -135 15 -49 36 -109 47 -132 10 -24 19 -47 19 -53 0 -6 4 -18 9 -28 6 -9
19 -42 29 -72 11 -30 41 -100 67 -155 25 -55 65 -140 88 -188 29 -62 38 -90
29 -96 -20 -12 -1814 -7 -1947 7 -66 6 -194 16 -285 22 -91 6 -217 15 -280 20
-405 33 -443 37 -662 60 -240 25 -296 31 -483 49 -225 23 -347 38 -420 51 -27
5 -93 14 -145 20 -52 7 -120 16 -150 20 -30 5 -80 12 -110 15 -30 3 -66 8 -80
11 -14 2 -59 9 -100 14 -88 11 -144 20 -345 56 -151 26 -184 33 -285 54 -60
12 -125 25 -180 35 -57 10 -192 56 -240 82 -43 23 -100 78 -100 95 0 5 -10 25
-23 46 -35 56 -83 187 -106 287 -30 131 -45 369 -45 715 0 321 12 486 55 770
5 36 14 97 20 135 11 79 27 150 39 180 5 11 14 38 21 60 34 113 140 286 241
391 41 43 215 177 266 204 15 8 50 29 77 46 73 45 316 164 335 164 9 0 20 4
25 9 6 5 60 26 120 45 61 20 118 41 127 46 10 6 25 10 33 10 8 0 23 4 33 9 18
10 264 88 367 116 127 35 140 39 150 46 6 3 24 9 40 12 38 6 204 59 275 87 30
12 72 28 93 36 37 14 246 119 302 152 17 10 53 31 80 47 252 148 457 352 562
560 73 144 85 192 90 386 6 203 -9 450 -33 529 -48 163 -119 259 -340 460
-181 164 -263 247 -303 305 -34 48 -96 177 -146 300 -21 50 -43 104 -50 120
-7 17 -30 86 -50 155 -20 69 -45 153 -56 187 -10 34 -19 69 -19 77 0 8 -29 28
-65 44 -71 34 -73 35 -152 106 -137 125 -254 359 -308 618 -26 122 -16 337 21
443 8 23 14 48 14 58 0 27 80 187 125 249 l42 58 7 262 c7 302 33 613 65 803
6 33 19 121 31 195 17 115 56 298 90 430 5 19 18 71 29 115 70 285 191 561
362 828 160 250 299 416 476 568 397 340 878 553 1363 605 36 4 94 10 130 14
91 10 588 9 685 -1z m1575 -410 c0 -10 -4 -19 -10 -19 -5 0 -10 12 -10 26 0
14 4 23 10 19 6 -3 10 -15 10 -26z m5508 -909 c13 -11 21 -24 18 -29 -7 -11
25 -71 37 -71 5 0 6 -4 2 -9 -3 -6 3 -18 13 -28 11 -10 32 -53 48 -95 l29 -78
457 0 c270 0 458 -4 458 -9 0 -5 -13 -45 -29 -88 -16 -43 -47 -127 -68 -188
l-39 -110 -40 -7 c-21 -4 -198 -7 -391 -8 l-352 -1 1 -235 1 -234 391 0 c215
1 394 1 398 0 7 0 -117 -368 -127 -378 -14 -15 -129 -21 -382 -21 l-283 -1 0
-234 c0 -161 3 -237 11 -242 8 -4 7 -9 -2 -15 -8 -5 209 -9 499 -9 361 0 512
-3 512 -11 0 -9 -60 -188 -117 -347 -10 -29 -24 -47 -40 -53 -23 -8 -2401 -14
-2410 -6 -2 2 4 21 13 43 9 21 16 41 16 44 1 13 21 72 74 218 l37 102 66 1
c36 1 239 2 451 3 l385 1 1 120 c1 66 -3 125 -8 132 -5 6 -5 14 0 17 13 8 14
207 1 223 -9 10 -90 13 -400 13 -341 0 -389 2 -389 15 0 9 12 48 26 88 14 39
43 124 65 187 l39 115 333 0 332 0 3 233 2 232 -122 1 c-68 1 -127 1 -132 0
-25 -5 -650 0 -655 5 -5 5 59 203 112 347 l22 57 397 0 398 0 -47 94 c-26 52
-51 92 -56 89 -6 -3 -7 -2 -4 4 4 5 -10 40 -29 76 l-35 67 243 0 c225 -1 245
-2 266 -20z m-2087 -53 c2 -116 0 -112 39 -115 35 -3 35 -3 74 83 l38 85 180
0 c137 0 180 -3 184 -13 2 -7 -9 -43 -26 -80 -16 -36 -30 -69 -30 -73 0 -3 46
-4 103 -2 64 2 101 -1 100 -7 -2 -5 -27 -73 -56 -150 l-53 -140 -277 -3 -277
-2 0 -40 0 -40 183 0 c196 0 190 1 262 -60 29 -25 47 -43 104 -110 l31 -35 0
-386 c0 -212 -2 -388 -4 -390 -2 -2 -98 -2 -213 1 l-208 5 0 65 0 65 -97 3
-98 3 0 -71 0 -70 -185 0 c-102 0 -188 -1 -192 -2 -5 -2 -9 30 -11 70 l-3 72
-94 0 -94 0 -3 -92 -3 -93 -180 -3 c-99 -1 -190 0 -202 3 l-23 5 0 407 0 406
54 66 c83 101 100 114 148 116 24 1 118 2 211 3 l167 2 0 50 0 50 -311 0 -310
0 6 23 c4 12 22 63 41 112 19 50 41 106 48 125 l14 35 253 5 254 5 3 88 3 88
224 -2 225 -1 1 -61z m-1304 44 c10 -1 13 -51 12 -213 0 -117 0 -257 0 -310
l1 -98 120 0 c101 0 120 -2 120 -15 0 -20 -110 -346 -121 -361 -5 -6 -32 -14
-60 -17 -29 -4 -54 -9 -57 -11 -3 -3 -5 -342 -6 -753 0 -411 -4 -747 -8 -745
-5 1 -109 2 -233 2 l-224 0 6 198 c9 350 9 702 -2 706 -6 3 -5 8 2 13 8 6 12
66 12 208 0 110 2 233 4 274 3 41 3 80 0 88 -4 10 -37 13 -138 13 -74 0 -136
3 -138 8 -4 6 87 295 114 365 11 26 14 27 91 27 l79 0 -2 88 c-1 48 -2 187 -1
309 l2 222 33 3 c30 3 368 2 394 -1z m1689 -1573 c1 -2 4 -25 5 -51 l3 -47
158 1 c87 1 162 -1 165 -5 8 -8 -85 -277 -102 -295 -2 -2 -54 -3 -115 -2
l-110 2 0 -199 c0 -191 -1 -200 -25 -248 -14 -27 -52 -77 -86 -111 l-61 -60
-186 -5 c-213 -6 -187 -14 -306 95 l-60 53 45 39 c93 81 206 202 211 226 3 19
3 166 -1 202 -1 4 -253 6 -561 5 -385 -2 -560 0 -560 7 0 6 22 67 48 135 27
69 52 133 55 143 6 17 90 21 415 19 23 0 45 4 48 10 4 5 11 5 19 -2 8 -7 100
-9 276 -8 l264 3 -3 40 c-1 22 0 45 2 50 3 9 453 12 462 3z m-907 -530 c18
-35 62 -117 97 -184 35 -67 64 -124 64 -128 0 -3 -99 -6 -220 -6 l-221 0 -60
123 c-34 67 -76 151 -95 185 -19 35 -34 66 -34 68 0 2 98 4 218 4 l219 0 32
-62z m976 -1209 c127 -10 173 -18 365 -58 235 -50 452 -126 660 -232 169 -86
235 -124 328 -187 45 -31 96 -66 113 -77 68 -45 269 -217 350 -301 131 -135
230 -252 289 -340 19 -28 69 -103 111 -165 128 -192 237 -415 336 -689 18 -52
38 -111 42 -130 5 -19 16 -62 26 -95 9 -33 23 -87 30 -120 7 -33 19 -73 25
-90 7 -16 14 -48 15 -70 1 -22 8 -105 15 -184 16 -182 8 -645 -15 -811 -20
-147 -91 -434 -153 -620 -42 -125 -138 -354 -162 -385 -4 -5 -31 -54 -60 -109
-65 -124 -143 -243 -240 -369 -41 -54 -88 -115 -103 -135 -44 -58 -283 -296
-377 -376 -216 -183 -367 -281 -624 -409 -164 -81 -203 -97 -356 -147 -545
-179 -1006 -215 -1550 -120 -109 19 -325 77 -394 105 -74 30 -68 33 -133 -67
-33 -51 -147 -232 -253 -403 -106 -170 -212 -339 -235 -375 -23 -36 -62 -96
-87 -135 -24 -38 -81 -126 -125 -195 -44 -69 -90 -143 -103 -165 -22 -36 -217
-336 -309 -474 -50 -76 -204 -229 -276 -276 -74 -49 -227 -111 -309 -126 -388
-71 -822 152 -1034 531 -43 77 -89 219 -102 319 -21 157 19 408 88 546 31 63
136 233 188 305 29 41 87 125 128 185 41 61 104 151 140 200 37 50 109 151
160 225 52 74 164 234 249 355 86 121 170 240 187 265 29 43 152 214 269 376
l53 75 -65 97 c-312 467 -487 1080 -487 1705 0 434 95 865 290 1307 105 239
195 394 353 605 75 99 239 288 329 376 70 69 224 198 341 284 37 28 87 64 111
82 57 42 257 154 376 210 259 122 492 196 812 258 206 40 482 48 773 24z"/>
<path d="M13143 14453 l-83 -4 0 -44 0 -45 95 0 95 0 2 35 c0 19 1 41 2 47 1
15 -3 15 -111 11z"/>
<path d="M13727 14452 l-88 -3 3 -42 3 -42 95 0 95 0 0 44 c0 24 -4 45 -10 46
-5 0 -50 -1 -98 -3z"/>
<path d="M13060 14125 l0 -45 95 0 95 0 0 45 0 45 -95 0 -95 0 0 -45z"/>
<path d="M13640 14125 l0 -45 101 0 100 0 -3 43 -3 42 -97 3 -98 3 0 -46z"/>
<path d="M13677 11559 c-215 -23 -485 -89 -677 -166 -294 -118 -504 -249 -770
-480 -343 -297 -604 -725 -749 -1225 -133 -461 -117 -1054 42 -1513 63 -180
187 -432 290 -585 40 -60 202 -261 266 -330 28 -30 50 -59 50 -65 0 -9 -146
-222 -304 -442 -62 -87 -85 -107 -100 -83 -10 17 -131 80 -152 80 -23 0 -61
-47 -253 -320 -68 -96 -158 -222 -199 -280 -42 -57 -132 -184 -201 -281 -69
-98 -219 -309 -335 -470 -351 -489 -382 -539 -421 -688 -37 -143 10 -362 104
-486 83 -109 232 -209 375 -252 77 -23 229 -19 303 6 123 43 216 127 340 306
87 126 370 553 489 740 60 94 142 222 183 285 41 63 99 153 129 200 30 47 94
146 142 220 119 183 171 280 171 319 0 51 -24 95 -79 142 -28 24 -51 48 -51
53 0 5 40 63 89 130 48 67 134 187 191 269 57 81 107 147 110 147 4 0 81 -37
171 -83 111 -56 211 -98 309 -129 167 -54 188 -59 381 -94 197 -35 546 -45
719 -20 360 54 578 122 862 272 157 84 198 110 333 209 341 253 619 606 803
1020 62 138 84 204 127 369 67 264 86 414 85 695 0 213 -9 311 -47 506 -83
434 -331 906 -652 1240 -160 167 -340 314 -526 427 -301 185 -718 323 -1079
358 -125 11 -354 11 -469 -1z m526 -365 c351 -48 627 -150 911 -337 322 -212
566 -485 757 -847 164 -310 250 -702 236 -1075 -22 -559 -224 -1043 -610
-1465 -195 -213 -487 -416 -753 -523 -301 -121 -555 -165 -894 -154 -403 13
-731 115 -1103 345 -278 171 -570 474 -731 760 -154 273 -255 587 -284 882
-13 129 -6 398 13 523 21 132 87 388 119 462 15 32 26 64 26 71 0 8 36 85 80
172 315 617 882 1043 1558 1172 216 41 446 46 675 14z"/>
<path d="M13690 10919 c-346 -42 -646 -161 -915 -362 -250 -186 -427 -393
-573 -667 -131 -247 -187 -444 -212 -745 -18 -220 -11 -356 30 -550 96 -456
332 -837 695 -1120 258 -201 608 -356 904 -400 241 -37 478 -28 716 25 361 80
637 237 943 534 230 222 422 578 500 926 47 206 55 292 49 500 -7 228 -28 348
-96 549 -106 313 -241 532 -475 767 -238 239 -448 369 -766 473 -166 54 -294
73 -515 76 -115 2 -244 -1 -285 -6z m430 -154 c227 -23 393 -75 615 -189 463
-240 791 -682 911 -1230 31 -138 42 -391 25 -545 -39 -354 -174 -683 -395
-960 -80 -100 -254 -261 -358 -331 -335 -227 -644 -323 -1033 -323 -340 1
-581 70 -905 259 -254 148 -500 399 -641 652 -102 184 -176 390 -215 604 -31
166 -19 459 27 668 67 302 234 618 443 839 105 110 332 289 404 319 9 4 56 29
104 55 294 162 631 223 1018 182z m-2040 -1665 c-8 -14 -8 -20 0 -20 11 0 4
-185 -7 -204 -10 -16 -22 18 -16 47 4 21 1 32 -10 39 -10 5 -17 14 -17 21 0 7
4 6 10 -3 5 -8 12 -12 15 -8 4 3 1 15 -6 26 -12 19 -14 19 -26 4 -11 -15 -12
-11 -12 28 0 25 3 38 6 30 6 -16 38 -50 48 -50 9 0 5 54 -4 69 -7 10 -4 19 7
28 23 17 24 16 12 -7z m-20 -40 c0 -5 -4 -10 -10 -10 -5 0 -10 5 -10 10 0 6 5
10 10 10 6 0 10 -4 10 -10z m-43 -152 c-3 -7 -5 -2 -5 12 0 14 2 19 5 13 2 -7
2 -19 0 -25z m60 -80 c-3 -7 -5 -2 -5 12 0 14 2 19 5 13 2 -7 2 -19 0 -25z
m173 -632 c0 -3 -4 -8 -10 -11 -5 -3 -10 -1 -10 4 0 6 5 11 10 11 6 0 10 -2
10 -4z m380 -516 c0 -5 -4 -10 -10 -10 -5 0 -10 5 -10 10 0 6 5 10 10 10 6 0
10 -4 10 -10z"/>
</g>
</svg>
