<?xml version="1.0" encoding="UTF-8"?>
<svg version="1.1" xmlns="http://www.w3.org/2000/svg" width="500" height="500">
<path d="M0 0 C2.41508559 -0.00463828 4.83017047 -0.00966426 7.24525452 -0.01504517 C13.76684041 -0.02807758 20.28841943 -0.03463523 26.81001592 -0.03905582 C30.90093248 -0.04183915 34.99184676 -0.04608012 39.08276176 -0.05056 C50.46253974 -0.06273913 61.84231591 -0.07303996 73.22210026 -0.07643509 C73.94764271 -0.07665466 74.67318516 -0.07687422 75.42071375 -0.07710044 C76.14776191 -0.07731872 76.87481006 -0.077537 77.62388998 -0.07776189 C79.09659072 -0.07820532 80.56929145 -0.07865188 82.04199219 -0.07910156 C82.77246623 -0.07932299 83.50294028 -0.07954442 84.2555499 -0.07977256 C96.05442926 -0.08370874 107.85324642 -0.1011327 119.65210182 -0.12446108 C131.83542415 -0.14835029 144.01871552 -0.16064489 156.20206159 -0.16180301 C163.01432592 -0.16271018 169.82650839 -0.16830174 176.63875008 -0.18662262 C250.52801428 -0.37130955 250.52801428 -0.37130955 275.72631836 8.16113281 C276.76401367 8.495 277.80170898 8.82886719 278.87084961 9.17285156 C290.80764538 13.56546177 302.72725321 21.3522276 312.20068359 29.81152344 C313.74798654 31.18030095 315.35302386 32.44657844 316.97631836 33.72363281 C319.70215085 36.13971161 320.97067186 38.01559951 322.72631836 41.16113281 C323.62962708 42.37948439 324.54803876 43.58669786 325.47631836 44.78613281 C342.56309706 67.59656153 348.89011353 93.66030261 348.86676025 121.85224915 C348.87121694 123.55793219 348.87121694 123.55793219 348.87576365 125.29807347 C348.88439692 129.08747649 348.88595435 132.87684771 348.88745117 136.66625977 C348.89154968 139.39224938 348.89708852 142.11823573 348.90249634 144.84422302 C348.91602786 152.23736545 348.92209664 159.63050243 348.926507 167.02365518 C348.92927896 171.65015733 348.93351808 176.27665743 348.93801117 180.90315819 C348.95019848 193.74103444 348.96049793 206.57890905 348.96388626 219.41679096 C348.96410583 220.2370881 348.96432539 221.05738524 348.96455161 221.90253986 C348.96476989 222.72467965 348.96498817 223.54681944 348.96521306 224.39387256 C348.96565651 226.05953809 348.96610307 227.72520361 348.96655273 229.39086914 C348.96677416 230.21707774 348.96699559 231.04328634 348.96722373 231.89453157 C348.97116527 245.25897747 348.98860201 258.62336863 349.01191226 271.98779342 C349.03571349 285.74611455 349.04809213 299.50440831 349.04925418 313.26275033 C349.05016618 320.97239587 349.05579736 328.68197012 349.07407379 336.39159584 C349.08959393 342.96118251 349.09452605 349.53067585 349.08633569 356.1002774 C349.08247036 359.44272562 349.08483779 362.78483627 349.09739304 366.127285 C349.235365 405.18039726 342.41603341 438.42109301 314.91381836 467.41113281 C302.18441186 479.65790779 285.54478232 489.77700087 268.28881836 493.84863281 C267.23823242 494.1 266.18764648 494.35136719 265.10522461 494.61035156 C263.92766602 494.88298828 263.92766602 494.88298828 262.72631836 495.16113281 C262.72631836 496.15113281 262.72631836 497.14113281 262.72631836 498.16113281 C261.40631836 498.16113281 260.08631836 498.16113281 258.72631836 498.16113281 C258.72631836 497.50113281 258.72631836 496.84113281 258.72631836 496.16113281 C258.06631836 495.83113281 257.40631836 495.50113281 256.72631836 495.16113281 C256.72631836 496.15113281 256.72631836 497.14113281 256.72631836 498.16113281 C219.10332862 498.2299307 181.48034842 498.2827283 143.8573084 498.3143288 C139.40674391 498.31808053 134.95617954 498.32196353 130.50561523 498.32592773 C129.17667974 498.32710813 129.17667974 498.32710813 127.82089707 498.32831237 C113.51103293 498.34133521 99.20120526 498.36497168 84.8913627 498.3925912 C70.18754704 498.42073259 55.48375037 498.43732745 40.7799089 498.4433983 C31.72062973 498.4474967 22.66145371 498.46039961 13.60220632 498.48488221 C7.37404235 498.50084746 1.14593102 498.50550902 -5.08225188 498.50163694 C-8.6654716 498.49973201 -12.24851222 498.5024686 -15.83169937 498.51874924 C-46.57269884 498.65139315 -74.68886785 495.27294521 -101.27368164 478.84863281 C-101.97485107 478.41599121 -102.67602051 477.98334961 -103.3984375 477.53759766 C-105.06357301 476.47226339 -106.67508962 475.32393844 -108.27368164 474.16113281 C-108.27368164 473.50113281 -108.27368164 472.84113281 -108.27368164 472.16113281 C-109.08385742 471.83628906 -109.08385742 471.83628906 -109.91040039 471.50488281 C-126.92860178 461.82841789 -137.47055259 439.50392107 -143.11352539 421.63769531 C-145.85302672 411.65825215 -147.52722478 401.35239137 -149.27368164 391.16113281 C-149.40452148 390.401875 -149.53536133 389.64261719 -149.67016602 388.86035156 C-149.91949011 387.30088494 -150.10605993 385.73148361 -150.27368164 384.16113281 C-149.94368164 383.83113281 -149.61368164 383.50113281 -149.27368164 383.16113281 C-149.60368164 383.16113281 -149.93368164 383.16113281 -150.27368164 383.16113281 C-150.19166032 350.31975951 -150.09938613 317.47843316 -149.99363003 284.63712817 C-149.98111327 280.74750625 -149.96868017 276.85788407 -149.95629883 272.96826172 C-149.95383283 272.19400671 -149.95136684 271.41975171 -149.94882612 270.62203443 C-149.90925463 258.13523061 -149.87643878 245.6484179 -149.84618182 233.16158843 C-149.81491249 220.31998524 -149.77623888 207.47841924 -149.73089159 194.63685799 C-149.7032057 186.73231408 -149.68108803 178.82779691 -149.66641913 170.92321795 C-149.65448992 164.83093674 -149.63218923 158.73873085 -149.60629845 152.64649391 C-149.59732922 150.17002141 -149.59155784 147.6935346 -149.589468 145.21704674 C-149.54988226 105.38475143 -146.35683416 68.81161368 -120.27368164 37.16113281 C-119.68200195 36.41605469 -119.09032227 35.67097656 -118.48071289 34.90332031 C-115.67825658 31.45968505 -113.04566578 29.40649412 -109.27368164 27.16113281 C-107.60030062 25.81527209 -105.93428468 24.46022846 -104.27368164 23.09863281 C-85.64576324 9.08769542 -63.22148094 2.88129701 -40.27368164 1.16113281 C-39.25162408 1.07923328 -38.22956652 0.99733376 -37.17653751 0.91295242 C-24.78464218 0.02182899 -12.419277 0.00560563 0 0 Z " fill="#FD2344" transform="translate(150.273681640625,1.8388671875)"/>
<path d="M0 0 C1.19496094 0.19722656 1.19496094 0.19722656 2.4140625 0.3984375 C23.14027515 3.89161941 44.22673712 20.10684848 56.3125 36.75 C71.02927725 57.99642551 76.74897517 81.96160584 73.5390625 107.6953125 C71.5738223 116.92038119 68.38444796 127.74201834 63.25 135.71875 C61.84930474 137.85257018 61.84930474 137.85257018 61.97265625 139.95703125 C63.54067186 143.07517635 65.94934372 145.30051399 68.4375 147.6875 C68.94087891 148.18572266 69.44425781 148.68394531 69.96289062 149.19726562 C72.73124174 151.93424708 72.73124174 151.93424708 76 154 C76.33 152.35 76.66 150.7 77 149 C77.8623526 149.24114784 77.8623526 149.24114784 78.74212646 149.48716736 C80.93890785 149.98612409 82.87840704 150.15553433 85.12597656 150.20532227 C85.92650452 150.22526749 86.72703247 150.24521271 87.55181885 150.26576233 C88.83327789 150.29083107 88.83327789 150.29083107 90.140625 150.31640625 C91.02280701 150.33718735 91.90498901 150.35796844 92.81390381 150.37937927 C95.62585831 150.44464867 98.43790445 150.50365447 101.25 150.5625 C103.15886356 150.60570673 105.06771793 150.64932171 106.9765625 150.69335938 C111.65094826 150.80030687 116.32542602 150.90163785 121 151 C119.97306903 157.17142637 117.34308436 162.56868808 114.8125 168.25 C114.34263672 169.36375 113.87277344 170.4775 113.38867188 171.625 C112.68000977 173.21054687 112.68000977 173.21054687 111.95703125 174.828125 C111.53397705 175.7965332 111.11092285 176.76494141 110.67504883 177.76269531 C109 180 109 180 105.81518555 180.82324219 C104.88617432 180.88157227 103.95716309 180.93990234 103 181 C103.51949219 181.46148437 104.03898438 181.92296875 104.57421875 182.3984375 C112.02536126 189.36752828 116.19983027 195.66821892 116.625 206.0625 C116.37773402 212.56912775 114.84356683 216.81440565 111 222 C110.319375 223.051875 109.63875 224.10375 108.9375 225.1875 C104.48379198 230.31427644 95.58328306 234.48700868 88.87109375 235.23828125 C79.54169791 235.52280536 72.93536879 232.99917844 65.9375 226.8125 C64.27632317 225.22422748 62.63033393 223.61991646 61 222 C60.21367187 221.23945313 59.42734375 220.47890625 58.6171875 219.6953125 C54.45169302 215.61453994 50.5403267 211.38998841 46.74609375 206.96484375 C44.2764064 204.18575486 41.62096678 201.61139504 38.97265625 199.00390625 C36.43044853 196.42142594 34.08664791 193.69335715 31.7265625 190.9453125 C29.45331749 188.38405455 27.02055342 186.0077957 24.578125 183.609375 C22.54491458 181.53590299 20.7524026 179.31317144 19 177 C13.21557589 178.23274612 7.5460837 179.64932397 1.87109375 181.31640625 C-23.57986074 187.37615732 -49.42559507 181.5854818 -71.484375 168.28515625 C-93.05294746 154.65882332 -108.80691926 132.07857972 -114.47900391 107.21875 C-119.10277055 84.23104701 -115.30294007 60.19783104 -102.86816406 40.17773438 C-100.45854709 36.60350356 -97.77804104 33.29098829 -95 30 C-94.44957031 29.2884375 -93.89914063 28.576875 -93.33203125 27.84375 C-71.44134837 0.6020113 -32.57210499 -7.51663961 0 0 Z " fill="#E2F6FC" transform="translate(121,135)"/>
<path d="M0 0 C1.12591553 0.00523682 2.25183105 0.01047363 3.41186523 0.01586914 C4.62680664 0.0190918 5.84174805 0.02231445 7.09350586 0.02563477 C8.37290039 0.03401367 9.65229492 0.04239258 10.97045898 0.05102539 C12.2537207 0.05553711 13.53698242 0.06004883 14.85913086 0.06469727 C18.04211921 0.07652994 21.22501661 0.09301471 24.40795898 0.11352539 C24.40795898 3.74352539 24.40795898 7.37352539 24.40795898 11.11352539 C25.7240918 11.06711914 27.04022461 11.02071289 28.39624023 10.97290039 C41.533335 10.64791042 52.75355494 11.17850506 62.95874023 20.53540039 C70.29014442 28.17606976 71.87149061 37.40481129 71.75952148 47.67797852 C71.72600586 48.87358398 71.69249023 50.06918945 71.65795898 51.30102539 C71.63991211 52.53916992 71.62186523 53.77731445 71.60327148 55.05297852 C71.5566148 58.07399904 71.49116882 61.09332849 71.40795898 64.11352539 C72.07037598 64.09539795 72.73279297 64.07727051 73.4152832 64.05859375 C83.36415678 63.89953538 90.37902193 66.33868263 97.71655273 73.24633789 C102.35782809 78.36996288 104.49802636 83.75980283 104.58496094 90.6315918 C104.60421379 91.96415512 104.60421379 91.96415512 104.62385559 93.32363892 C104.63124252 94.27781708 104.63862946 95.23199524 104.64624023 96.21508789 C104.65431198 97.20672943 104.66238373 98.19837097 104.67070007 99.22006226 C104.68452259 101.31978619 104.69525293 103.41953243 104.703125 105.51928711 C104.71462351 107.65477129 104.73504134 109.79022722 104.76464844 111.92553711 C104.80757177 115.02225138 104.82353029 118.11811208 104.83374023 121.21508789 C104.85124832 122.15712067 104.86875641 123.09915344 104.88679504 124.06973267 C104.86244933 131.61992 103.2404635 138.45388195 98.54858398 144.51586914 C97.92467773 145.0224707 97.30077148 145.52907227 96.65795898 146.05102539 C96.04436523 146.57567383 95.43077148 147.10032227 94.79858398 147.64086914 C86.91949236 152.49449258 79.95994724 152.49499657 70.90795898 152.30102539 C69.70397461 152.28749023 68.49999023 152.27395508 67.25952148 152.26000977 C64.30852925 152.22487891 61.35848486 152.17568535 58.40795898 152.11352539 C57.29729775 149.80395861 56.19442551 147.49115206 55.09545898 145.17602539 C54.63236328 144.21599609 54.63236328 144.21599609 54.15991211 143.23657227 C51.83216558 138.31155066 50.03202876 133.31100042 48.40795898 128.11352539 C49.52823486 128.08379639 49.52823486 128.08379639 50.67114258 128.0534668 C54.04211503 127.95844328 57.41244827 127.8486728 60.78295898 127.73852539 C61.95858398 127.70758789 63.13420898 127.67665039 64.34545898 127.64477539 C65.46694336 127.60610352 66.58842773 127.56743164 67.74389648 127.52758789 C68.78078613 127.49616699 69.81767578 127.46474609 70.88598633 127.43237305 C73.57605734 127.35398067 73.57605734 127.35398067 75.40795898 125.11352539 C75.9499151 120.69699366 75.8712348 116.24694752 75.90795898 111.80102539 C75.94920898 110.56416992 75.99045898 109.32731445 76.03295898 108.05297852 C76.04327148 106.85995117 76.05358398 105.66692383 76.06420898 104.43774414 C76.08290039 103.34550537 76.1015918 102.2532666 76.12084961 101.12792969 C75.32427345 97.75966743 74.16764645 96.10390712 71.36480713 94.05101013 C67.42258891 92.16237639 63.2731883 92.38829067 58.97827148 92.40649414 C58.09969482 92.39187134 57.22111816 92.37724854 56.31591797 92.36218262 C53.05520848 92.31505441 49.79399519 92.31052845 46.53295898 92.30102539 C39.23170898 92.23915039 31.93045898 92.17727539 24.40795898 92.11352539 C24.40795898 112.24352539 24.40795898 132.37352539 24.40795898 153.11352539 C15.49795898 153.11352539 6.58795898 153.11352539 -2.59204102 153.11352539 C-3.59204102 152.11352539 -3.59204102 152.11352539 -3.71229553 149.71543884 C-3.70896461 148.11992943 -3.70896461 148.11992943 -3.70556641 146.4921875 C-3.70549088 145.29101791 -3.70541534 144.08984833 -3.70533752 142.85227966 C-3.70017624 141.54501419 -3.69501495 140.23774872 -3.68969727 138.89086914 C-3.687833 137.54708407 -3.68640914 136.20329832 -3.68540955 134.85951233 C-3.68158503 131.31670263 -3.67175533 127.77393369 -3.66070557 124.23114014 C-3.65049001 120.61837323 -3.64585692 117.00559955 -3.64086914 113.39282227 C-3.63066319 106.29968726 -3.61109152 99.20666432 -3.59204102 92.11352539 C-12.83204102 92.11352539 -22.07204102 92.11352539 -31.59204102 92.11352539 C-31.59204102 82.87352539 -31.59204102 73.63352539 -31.59204102 64.11352539 C-22.35204102 64.11352539 -13.11204102 64.11352539 -3.59204102 64.11352539 C-3.59204102 55.86352539 -3.59204102 47.61352539 -3.59204102 39.11352539 C-9.86204102 39.11352539 -16.13204102 39.11352539 -22.59204102 39.11352539 C-22.59204102 29.87352539 -22.59204102 20.63352539 -22.59204102 11.11352539 C-16.32204102 11.11352539 -10.05204102 11.11352539 -3.59204102 11.11352539 C-3.61266602 9.48415039 -3.63329102 7.85477539 -3.65454102 6.17602539 C-3.67590169 4.48853198 -3.66409613 2.79961505 -3.59204102 1.11352539 C-2.59204102 0.11352539 -2.59204102 0.11352539 0 0 Z " fill="#FEFCFC" transform="translate(368.592041015625,161.886474609375)"/>
<path d="M0 0 C1.19496094 0.19722656 1.19496094 0.19722656 2.4140625 0.3984375 C23.14027515 3.89161941 44.22673712 20.10684848 56.3125 36.75 C71.02927725 57.99642551 76.74897517 81.96160584 73.5390625 107.6953125 C71.5738223 116.92038119 68.38444796 127.74201834 63.25 135.71875 C61.84930474 137.85257018 61.84930474 137.85257018 61.97265625 139.95703125 C63.54067186 143.07517635 65.94934372 145.30051399 68.4375 147.6875 C68.94087891 148.18572266 69.44425781 148.68394531 69.96289062 149.19726562 C72.73124174 151.93424708 72.73124174 151.93424708 76 154 C76.33 152.35 76.66 150.7 77 149 C77.8623526 149.24114784 77.8623526 149.24114784 78.74212646 149.48716736 C80.93890785 149.98612409 82.87840704 150.15553433 85.12597656 150.20532227 C85.92650452 150.22526749 86.72703247 150.24521271 87.55181885 150.26576233 C88.83327789 150.29083107 88.83327789 150.29083107 90.140625 150.31640625 C91.02280701 150.33718735 91.90498901 150.35796844 92.81390381 150.37937927 C95.62585831 150.44464867 98.43790445 150.50365447 101.25 150.5625 C103.15886356 150.60570673 105.06771793 150.64932171 106.9765625 150.69335938 C111.65094826 150.80030687 116.32542602 150.90163785 121 151 C119.97306903 157.17142637 117.34308436 162.56868808 114.8125 168.25 C114.34263672 169.36375 113.87277344 170.4775 113.38867188 171.625 C112.68000977 173.21054687 112.68000977 173.21054687 111.95703125 174.828125 C111.53397705 175.7965332 111.11092285 176.76494141 110.67504883 177.76269531 C109 180 109 180 105.81518555 180.82324219 C104.88617432 180.88157227 103.95716309 180.93990234 103 181 C103.51949219 181.46148437 104.03898438 181.92296875 104.57421875 182.3984375 C112.02536126 189.36752828 116.19983027 195.66821892 116.625 206.0625 C116.37773402 212.56912775 114.84356683 216.81440565 111 222 C110.319375 223.051875 109.63875 224.10375 108.9375 225.1875 C104.48379198 230.31427644 95.58328306 234.48700868 88.87109375 235.23828125 C79.54169791 235.52280536 72.93536879 232.99917844 65.9375 226.8125 C64.27632317 225.22422748 62.63033393 223.61991646 61 222 C60.21367187 221.23945313 59.42734375 220.47890625 58.6171875 219.6953125 C54.45169302 215.61453994 50.5403267 211.38998841 46.74609375 206.96484375 C44.2764064 204.18575486 41.62096678 201.61139504 38.97265625 199.00390625 C36.43044853 196.42142594 34.08664791 193.69335715 31.7265625 190.9453125 C29.45331749 188.38405455 27.02055342 186.0077957 24.578125 183.609375 C22.54491458 181.53590299 20.7524026 179.31317144 19 177 C13.21557589 178.23274612 7.5460837 179.64932397 1.87109375 181.31640625 C-23.57986074 187.37615732 -49.42559507 181.5854818 -71.484375 168.28515625 C-93.05294746 154.65882332 -108.80691926 132.07857972 -114.47900391 107.21875 C-119.10277055 84.23104701 -115.30294007 60.19783104 -102.86816406 40.17773438 C-100.45854709 36.60350356 -97.77804104 33.29098829 -95 30 C-94.44957031 29.2884375 -93.89914063 28.576875 -93.33203125 27.84375 C-71.44134837 0.6020113 -32.57210499 -7.51663961 0 0 Z M-84.02734375 33.61328125 C-100.14440172 53.11332565 -104.30203514 73.68520254 -102.7890625 98.453125 C-100.5482947 116.67803644 -88.81073738 134.38909255 -74.83984375 145.7578125 C-55.89656469 159.86249106 -35.35004768 164.10503917 -12 162 C-2.62827976 160.51038409 5.83992546 157.12783506 13.80078125 151.94140625 C16 151 16 151 17.96484375 151.48828125 C20.7485547 153.55602816 22.98065925 156.02581321 25.25 158.625 C25.70890625 159.140625 26.1678125 159.65625 26.640625 160.1875 C27.76592296 161.4534602 28.88372177 162.72607942 30 164 C29.484375 164.5775 28.96875 165.155 28.4375 165.75 C26.80961223 167.83397875 26.80961223 167.83397875 27.0546875 169.984375 C28.30812928 172.65700294 29.97820416 174.22691782 32.125 176.25 C35.68669458 179.62683154 38.92207016 183.16612357 42.13037109 186.87207031 C45.24538022 190.41743719 48.50109804 193.82770715 51.75 197.25 C56.10673182 201.8515996 60.4447208 206.46355981 64.69067383 211.16772461 C72.16258697 220.35771038 72.16258697 220.35771038 82.3203125 225.23828125 C88.79685528 225.40966609 93.70281089 224.92784771 99 221 C103.4190766 216.77928594 105.15483312 212.8855551 105.4375 206.8125 C105.49808594 205.91144531 105.55867187 205.01039063 105.62109375 204.08203125 C103.91712539 195.62649014 95.20268859 188.92419212 89.33203125 183.1015625 C88.41540207 182.18539154 87.49877289 181.26922058 86.55436707 180.32528687 C84.62860127 178.40107319 82.69956062 176.48022904 80.76782227 174.56201172 C78.2946236 172.10590913 75.82816698 169.64316696 73.36388111 167.17812538 C71.00188693 164.81646828 68.63566247 162.45907501 66.26953125 160.1015625 C65.3851387 159.21828278 64.50074615 158.33500305 63.58955383 157.42495728 C62.76827499 156.61005829 61.94699615 155.7951593 61.10083008 154.95556641 C60.37946365 154.23801178 59.65809723 153.52045715 58.91487122 152.78115845 C56.51276621 150.54678906 54.82377777 149.08237778 51.5 148.75 C48.75047381 148.82751646 48.75047381 148.82751646 46 151 C43.96325717 148.93035824 41.94636581 146.84640298 39.9375 144.75 C39.06641602 143.87021484 39.06641602 143.87021484 38.17773438 142.97265625 C37.63310547 142.39902344 37.08847656 141.82539063 36.52734375 141.234375 C36.01937256 140.71069336 35.51140137 140.18701172 34.98803711 139.64746094 C34 138 34 138 34.26708984 135.90527344 C35.10972902 133.71474841 36.18377409 132.29973495 37.6875 130.5 C50.60591438 113.77111806 53.60307176 93.538009 52 73 C49.21574159 54.34175632 37.87527039 36.33662554 22.99853516 24.89379883 C-10.29166014 0.73725806 -55.22924784 3.51424467 -84.02734375 33.61328125 Z " fill="#FBF9F8" transform="translate(121,135)"/>
<path d="M0 0 C13.32024059 11.12735056 24.26673934 28.48018155 26.52197266 45.98046875 C27.51641648 59.79334552 26.79205789 72.89956441 21.83447266 85.91796875 C21.57754639 86.59819092 21.32062012 87.27841309 21.0559082 87.97924805 C18.45417927 94.59070957 15.18804316 101.78378476 9.75244141 106.5234375 C8.29192186 107.91468097 8.29192186 107.91468097 8.63134766 109.953125 C9.67780287 112.33518753 10.88038191 113.63740616 12.77197266 115.41796875 C13.70976562 116.31515625 13.70976562 116.31515625 14.66650391 117.23046875 C15.27880859 117.80796875 15.89111328 118.38546875 16.52197266 118.98046875 C17.50479062 119.95597045 18.48450536 120.93462065 19.45947266 121.91796875 C20.14009766 122.59859375 20.82072266 123.27921875 21.52197266 123.98046875 C22.18197266 123.32046875 22.84197266 122.66046875 23.52197266 121.98046875 C26.80710323 121.45707952 28.12895098 121.70456015 30.87489319 123.63226318 C31.66214279 124.38622375 32.4493924 125.14018433 33.26049805 125.91699219 C34.13199493 126.74227417 35.00349182 127.56755615 35.90139771 128.41784668 C36.76618744 129.26351196 37.63097717 130.10917725 38.52197266 130.98046875 C39.29048553 131.72139771 40.05899841 132.46232666 40.85079956 133.22570801 C43.15351518 135.46522115 45.43259832 137.72640985 47.70556641 139.99609375 C48.52775162 140.81495056 49.34993683 141.63380737 50.19703674 142.47747803 C51.91496514 144.19038889 53.63158338 145.90461471 55.34692383 147.62011719 C57.9721319 150.24311735 60.60526867 152.85798532 63.23876953 155.47265625 C64.91569028 157.14664625 66.59213961 158.82110865 68.26806641 160.49609375 C69.05241562 161.27325745 69.83676483 162.05042114 70.6448822 162.85113525 C71.37316727 163.58249695 72.10145233 164.31385864 72.85180664 165.06738281 C73.49004868 165.70419983 74.12829071 166.34101685 74.78587341 166.99713135 C79.16555152 172.00052008 80.07575927 175.7505836 79.86572266 182.26171875 C79.25462483 187.09494704 77.55075235 190.20989738 73.80322266 193.48046875 C67.73813061 198.00358824 62.03209791 199.03415895 54.52197266 197.98046875 C51.3378692 196.48809826 49.0360429 194.41456857 46.52197266 191.98046875 C45.78076172 191.28050781 45.03955078 190.58054687 44.27587891 189.859375 C40.75104198 186.42964329 37.41980257 182.88246771 34.19384766 179.171875 C30.66841941 175.11987575 27.02334164 171.1959609 23.33447266 167.29296875 C17.92414681 161.54733412 12.54304013 155.77698157 7.20288086 149.96606445 C5.33793804 147.93841071 3.47024969 145.92874579 1.52197266 143.98046875 C1.91075454 140.96740918 2.7865414 139.58361564 4.52197266 136.98046875 C0.56197266 132.69046875 -3.39802734 128.40046875 -7.47802734 123.98046875 C-10.89983812 125.34919306 -14.11443725 126.75833117 -17.41552734 128.35546875 C-35.67921058 136.49681961 -57.22479869 138.36251785 -76.47802734 131.98046875 C-86.85767297 127.88384586 -95.94330478 122.14963571 -104.47802734 114.98046875 C-105.13029297 114.44164062 -105.78255859 113.9028125 -106.45458984 113.34765625 C-119.34520158 101.63426933 -127.62817397 82.76229339 -128.61083984 65.67041016 C-129.6823064 42.39726366 -124.23387503 23.54066709 -108.47802734 5.98046875 C-107.96111328 5.37074219 -107.44419922 4.76101562 -106.91162109 4.1328125 C-79.0898356 -26.47812442 -30.69330812 -24.30782854 0 0 Z M-104.34130859 17.0390625 C-115.52747549 30.94228286 -119.96186524 48.44584776 -118.47802734 65.98046875 C-115.77242855 83.31711334 -107.03981422 100.47361408 -92.91796875 111.16113281 C-76.03347739 123.31243878 -57.70418365 127.87114777 -36.96582031 124.58203125 C-23.39519874 121.50787607 -12.26696011 114.73677174 -2.47802734 104.98046875 C-1.76646484 104.29210937 -1.05490234 103.60375 -0.32177734 102.89453125 C11.95817515 90.18950348 16.80762281 72.7735439 16.90917969 55.4621582 C16.5560839 38.02755789 7.3720903 22.2496146 -4.47802734 9.98046875 C-19.49876528 -3.41696098 -36.95838576 -8.99077211 -56.83349609 -8.359375 C-75.94023121 -7.26343857 -91.85172698 3.24030043 -104.34130859 17.0390625 Z " fill="#040404" transform="translate(146.47802734375,162.01953125)"/>
<path d="M0 0 C21.45 0 42.9 0 65 0 C65 9.24 65 18.48 65 28 C59.06 28 53.12 28 47 28 C47 56.05 47 84.1 47 113 C55.91 113 64.82 113 74 113 C74 122.24 74 131.48 74 141 C42.98 141 11.96 141 -20 141 C-14.25154321 126.05401235 -14.25154321 126.05401235 -11.1875 119.6875 C-9.6096875 116.3771875 -9.6096875 116.3771875 -8 113 C0.58 113 9.16 113 18 113 C18 84.95 18 56.9 18 28 C12.06 28 6.12 28 0 28 C0 18.76 0 9.52 0 0 Z " fill="#FEFCFC" transform="translate(265,173)"/>
<path d="M0 0 C13.6655907 10.77678861 24.07748786 26.30171375 26.7734375 43.74609375 C27.98940171 62.62249049 24.64177148 80.94357393 11.8515625 95.515625 C11.16578125 96.25167969 10.48 96.98773438 9.7734375 97.74609375 C9.10828125 98.51308594 8.443125 99.28007812 7.7578125 100.0703125 C-3.15809748 111.97674023 -19.00194111 119.18791814 -35.05078125 120.22265625 C-54.97574811 120.95031516 -71.48985221 115.95532329 -86.5390625 102.43359375 C-98.96190362 90.79464107 -107.28566659 74.4122213 -108.46484375 57.28515625 C-108.81499103 38.81949434 -103.47257869 21.45710459 -90.55419922 7.87573242 C-65.31435188 -17.38549737 -29.2613478 -20.44043303 0 0 Z M-63.2265625 4.74609375 C-64.22816406 5.25527344 -65.22976562 5.76445312 -66.26171875 6.2890625 C-79.23707094 13.31536846 -87.53099482 23.10791621 -92.46484375 36.97265625 C-96.6979025 52.38533171 -94.57501883 67.20864121 -87.6640625 81.37109375 C-80.06584258 94.43469994 -68.05309145 102.97334851 -53.7265625 107.18359375 C-39.17799025 110.60243423 -25.82180705 108.35580507 -12.6015625 101.2890625 C-7.99814665 98.29835648 -4.09768037 94.61721162 -0.2265625 90.74609375 C0.36253906 90.15699219 0.95164062 89.56789063 1.55859375 88.9609375 C11.88111308 77.79360841 14.69034817 62.97138622 14.18359375 48.22265625 C13.4446543 37.38642199 8.65694984 28.00350469 1.7734375 19.74609375 C0.83951172 18.59173828 0.83951172 18.59173828 -0.11328125 17.4140625 C-7.8521373 8.7612844 -20.95947545 1.56749888 -32.65869141 0.53051758 C-48.46692344 -0.18490119 -48.46692344 -0.18490119 -63.2265625 4.74609375 Z " fill="#CBCFD4" transform="translate(136.2265625,167.25390625)"/>
<path d="M0 0 C1.16781006 0.00523682 2.33562012 0.01047363 3.53881836 0.01586914 C4.79887695 0.0190918 6.05893555 0.02231445 7.35717773 0.02563477 C8.6976732 0.03399136 10.03816799 0.04245632 11.37866211 0.05102539 C12.72306153 0.05603879 14.06746271 0.06060197 15.41186523 0.06469727 C18.71334151 0.07653051 22.01473014 0.09301568 25.31616211 0.11352539 C22.70412325 8.64499704 18.96766822 16.47848441 15.07983398 24.49438477 C14.59708008 25.51725586 14.11432617 26.54012695 13.61694336 27.59399414 C13.17519775 28.51075928 12.73345215 29.42752441 12.27832031 30.37207031 C10.98499958 33.5728665 10.98499958 33.5728665 11.31616211 39.11352539 C19.23616211 39.44352539 27.15616211 39.77352539 35.31616211 40.11352539 C33.28125481 46.2182473 31.18853091 51.92231783 28.52319336 57.72680664 C27.80363347 59.31983386 27.08423707 60.91293493 26.36499023 62.50610352 C25.24175059 64.98038993 24.1160989 67.45353546 22.98730469 69.92529297 C21.8886747 72.33544366 20.79919561 74.74956878 19.71069336 77.16430664 C19.37012405 77.90288406 19.02955475 78.64146149 18.67866516 79.40242004 C17.09076769 82.93652339 16.31616211 85.17497952 16.31616211 89.11352539 C21.92616211 89.44352539 27.53616211 89.77352539 33.31616211 90.11352539 C30.01616211 97.70352539 26.71616211 105.29352539 23.31616211 113.11352539 C18.29762377 113.22862948 13.28370175 113.32805793 8.26489258 113.38818359 C6.55965622 113.41325584 4.85452657 113.44732303 3.1496582 113.49072266 C0.69187037 113.55170105 -1.7644915 113.57980651 -4.22290039 113.60180664 C-5.3576329 113.64051628 -5.3576329 113.64051628 -6.51528931 113.68000793 C-10.51257463 113.68210374 -12.96929867 113.2909338 -16.14819336 110.76318359 C-19.10526839 107.67314553 -19.7264158 106.36067218 -19.68383789 102.11352539 C-18.71508789 98.80883789 -18.71508789 98.80883789 -17.18383789 95.23852539 C-16.7792334 94.27873779 -16.7792334 94.27873779 -16.36645508 93.29956055 C-15.48851297 91.23012557 -14.5881543 89.17155915 -13.68383789 87.11352539 C-13.05329875 85.6605439 -12.4230921 84.20741809 -11.79321289 82.75415039 C-10.60565546 80.02289176 -9.40697793 77.29694916 -8.19946289 74.57446289 C-6.97201362 71.77157615 -5.79743035 68.96301199 -4.68383789 66.11352539 C-6.00383789 66.11352539 -7.32383789 66.11352539 -8.68383789 66.11352539 C-8.53946289 65.14415039 -8.39508789 64.17477539 -8.24633789 63.17602539 C-8.05842075 61.82191655 -7.87096621 60.46774347 -7.68383789 59.11352539 C-7.56524414 58.32204102 -7.44665039 57.53055664 -7.32446289 56.71508789 C-7.21618164 55.91844727 -7.10790039 55.12180664 -6.99633789 54.30102539 C-6.8893457 53.55208008 -6.78235352 52.80313477 -6.67211914 52.03149414 C-6.4606791 49.86816867 -6.4606791 49.86816867 -8.68383789 48.11352539 C-11.25300446 47.80753476 -13.73142173 47.60265452 -16.30883789 47.48852539 C-17.01524414 47.44985352 -17.72165039 47.41118164 -18.44946289 47.37133789 C-20.19382313 47.27704815 -21.9387948 47.19419648 -23.68383789 47.11352539 C-19.01730171 34.8945688 -13.69697217 22.86357919 -7.71118164 11.23461914 C-6.11946977 7.94830909 -4.93096514 4.54312533 -3.68383789 1.11352539 C-2.68383789 0.11352539 -2.68383789 0.11352539 0 0 Z " fill="#FEFBFB" transform="translate(220.683837890625,161.886474609375)"/>
<path d="M0 0 C0 3.72129368 -0.7822314 4.10484489 -3.3125 6.6875 C-7.9731483 11.84817737 -10.13828613 16.51163033 -10.1875 23.5 C-10.125625 24.655 -10.06375 25.81 -10 27 C-9.34 27 -8.68 27 -8 27 C-8 27.66 -8 28.32 -8 29 C-5.69 29.66 -3.38 30.32 -1 31 C-1 33.64 -1 36.28 -1 39 C-0.34 39 0.32 39 1 39 C1 40.98 1 42.96 1 45 C1.66 45 2.32 45 3 45 C4.22157583 46.43415398 5.37667537 47.92515516 6.5 49.4375 C19.72222999 66.20773446 37.76932361 75.08884578 58.7199707 77.87426758 C63.13925058 78.49967825 66.28686824 79.32979967 70 82 C67.79360689 87.50412045 63.10266611 89.46565318 58 92 C42.75263895 97.98935992 29.60294787 98.57722392 14 93 C-1.21228339 86.23898516 -10.9585093 74.52241239 -17.08984375 59.29296875 C-21.30810294 46.32716745 -20.10035692 30.55627941 -14.26171875 18.29296875 C-10.44140476 11.35016902 -5.8008995 5.37644344 0 0 Z " fill="#C8EDF9" transform="translate(61,179)"/>
<path d="M0 0 C11.50152771 9.03667477 21.31731657 22.92268637 23.23876953 37.73193359 C24.42601162 53.99355252 21.48691349 70.53997264 10.81005859 83.4609375 C0.84376179 94.6753558 -11.89598485 104.43034958 -27.43310547 105.63037109 C-28.20138672 105.66388672 -28.96966797 105.69740234 -29.76123047 105.73193359 C-30.83888672 105.80669922 -31.91654297 105.88146484 -33.02685547 105.95849609 C-49.46697819 106.61197378 -63.43265351 101.14030198 -75.94873047 90.48193359 C-86.68027241 80.4232156 -94.4170679 66.71552049 -95.09716797 51.81396484 C-95.40729781 33.82134974 -91.82980916 18.97916418 -79.13623047 5.48193359 C-56.73227337 -15.6320987 -25.0362242 -18.02580378 0 0 Z M-58.76123047 -2.26806641 C-59.76283203 -1.75888672 -60.76443359 -1.24970703 -61.79638672 -0.72509766 C-74.77173891 6.3012083 -83.06566278 16.09375605 -87.99951172 29.95849609 C-92.23257047 45.37117155 -90.1096868 60.19448106 -83.19873047 74.35693359 C-75.60051054 87.42053978 -63.58775942 95.95918835 -49.26123047 100.16943359 C-34.71265821 103.58827407 -21.35647502 101.34164491 -8.13623047 94.27490234 C-3.53281461 91.28419632 0.36765166 87.60305146 4.23876953 83.73193359 C4.82787109 83.14283203 5.41697266 82.55373047 6.02392578 81.94677734 C16.34644511 70.77944825 19.1556802 55.95722607 18.64892578 41.20849609 C17.90998634 30.37226183 13.12228187 20.98934453 6.23876953 12.73193359 C5.30484375 11.57757813 5.30484375 11.57757813 4.35205078 10.39990234 C-3.38680527 1.74712424 -16.49414342 -5.44666128 -28.19335938 -6.48364258 C-44.00159141 -7.19906134 -44.00159141 -7.19906134 -58.76123047 -2.26806641 Z " fill="#5F7A8A" transform="translate(131.76123046875,174.26806640625)"/>
<path d="M0 0 C1.61645034 2.38213735 2.05745362 3.55186176 1.6875 6.4375 C1.460625 7.283125 1.23375 8.12875 1 9 C0.7215625 10.3921875 0.7215625 10.3921875 0.4375 11.8125 C0.293125 12.534375 0.14875 13.25625 0 14 C-0.66 14 -1.32 14 -2 14 C-2 15.32 -2 16.64 -2 18 C-2.66 18 -3.32 18 -4 18 C-4.66 19.32 -5.32 20.64 -6 22 C-6.66 22 -7.32 22 -8 22 C-8 22.66 -8 23.32 -8 24 C-8.66 24 -9.32 24 -10 24 C-10 24.66 -10 25.32 -10 26 C-10.66 26 -11.32 26 -12 26 C-12 26.66 -12 27.32 -12 28 C-13.32 28 -14.64 28 -16 28 C-16 28.66 -16 29.32 -16 30 C-19.20380017 32.13586678 -20.01939967 32.23132175 -23.6875 32.125 C-24.49574219 32.10695312 -25.30398437 32.08890625 -26.13671875 32.0703125 C-26.75160156 32.04710937 -27.36648437 32.02390625 -28 32 C-28 31.34 -28 30.68 -28 30 C-29.65 30 -31.3 30 -33 30 C-34.84734112 26.30531776 -33.70790208 21.95923995 -33 18 C-31.6875 15.1875 -31.6875 15.1875 -30 13 C-29.38125 12.13375 -28.7625 11.2675 -28.125 10.375 C-25.90079977 7.88912916 -23.891868 6.62226742 -21 5 C-20.195625 4.319375 -19.39125 3.63875 -18.5625 2.9375 C-13.55170768 -0.85114786 -5.93999473 -2.96999737 0 0 Z " fill="#FCFEFD" transform="translate(84,176)"/>
<path d="M0 0 C4.25605409 2.408646 7.12558435 5.47676222 9 10 C9.4850824 15.23888993 8.85631117 18.56779301 6 23 C2.26081453 26.37438688 -0.11697309 28.13297906 -5.1328125 28.09765625 C-5.93847656 28.09443359 -6.74414062 28.09121094 -7.57421875 28.08789062 C-8.41597656 28.07951172 -9.25773437 28.07113281 -10.125 28.0625 C-10.97449219 28.05798828 -11.82398438 28.05347656 -12.69921875 28.04882812 C-14.79950909 28.03702874 -16.8997633 28.01909306 -19 28 C-19.10845027 24.95736733 -19.18752063 21.91863796 -19.25 18.875 C-19.28351563 18.0190625 -19.31703125 17.163125 -19.3515625 16.28125 C-19.43827812 10.64473487 -18.78250544 7.46642708 -15 3 C-10.68743386 -0.80520542 -5.48092164 -1.06715764 0 0 Z " fill="#FEF9F9" transform="translate(464,173)"/>
<path d="M0 0 C3.3 0.33 6.6 0.66 10 1 C10 1.33 10 1.66 10 2 C-1.45837816 4.82344791 -12.20548423 5.41685536 -23.96069336 5.34057617 C-25.81509894 5.33972788 -27.66950552 5.34020898 -29.52391052 5.34190369 C-34.51055702 5.34275718 -39.4969828 5.32523723 -44.48357844 5.30418181 C-49.71255645 5.28530614 -54.94154066 5.28365605 -60.17054749 5.28010559 C-70.05115111 5.27081691 -79.93165401 5.24624653 -89.81221348 5.21605712 C-101.06989035 5.1824137 -112.32757227 5.1660022 -123.58528697 5.15097082 C-146.72358028 5.11969384 -169.86178447 5.06699573 -193 5 C-188.78186824 2.18791216 -185.95941829 1.87472779 -180.99607849 1.87301636 C-179.11366455 1.86878662 -179.11366455 1.86878662 -177.19322205 1.86447144 C-175.79995713 1.86641579 -174.40669236 1.86846396 -173.01342773 1.87060547 C-171.54826819 1.86925067 -170.08310899 1.86747029 -168.61795044 1.86529541 C-164.63670734 1.86073086 -160.65549011 1.86250653 -156.67424655 1.8656745 C-152.51249035 1.86820265 -148.35073639 1.86585933 -144.1889801 1.86428833 C-137.20060833 1.86246817 -130.21224712 1.86486913 -123.22387695 1.86962891 C-115.13669948 1.87507336 -107.0495472 1.87330692 -98.96237034 1.8678025 C-92.02560346 1.86326953 -85.08884418 1.86262166 -78.1520763 1.86524117 C-74.00603228 1.86680266 -69.86000011 1.86700116 -65.71395683 1.86370468 C-61.81767594 1.86082324 -57.92142766 1.86280671 -54.0251503 1.86859894 C-52.59242494 1.86992497 -51.15969686 1.86953505 -49.72697258 1.86733627 C-47.77696198 1.86461876 -45.82694541 1.86862487 -43.87693787 1.87301636 C-42.78390067 1.87339338 -41.69086348 1.87377041 -40.56470394 1.87415886 C-38 2 -38 2 -36 3 C-33.90414879 3.09761852 -31.80515362 3.13077223 -29.70703125 3.1328125 C-27.80147461 3.13474609 -27.80147461 3.13474609 -25.85742188 3.13671875 C-25.19282959 3.13462402 -24.5282373 3.1325293 -23.84350586 3.13037109 C-21.83773376 3.12506673 -19.83194232 3.13082232 -17.82617188 3.13671875 C-16.54935547 3.13542969 -15.27253906 3.13414062 -13.95703125 3.1328125 C-12.20869995 3.13112061 -12.20869995 3.13112061 -10.42504883 3.12939453 C-6.88994584 2.99584228 -3.49085975 2.5599834 0 2 C0 1.34 0 0.68 0 0 Z " fill="#F70E2E" transform="translate(400,494)"/>
<path d="M0 0 C4.1146875 -0.0928125 4.1146875 -0.0928125 8.3125 -0.1875 C9.60281128 -0.22846802 9.60281128 -0.22846802 10.91918945 -0.27026367 C11.60198975 -0.27775635 12.28479004 -0.28524902 12.98828125 -0.29296875 C14.03302612 -0.31653442 14.03302612 -0.31653442 15.09887695 -0.34057617 C17.67063437 0.12014061 18.50176969 0.87154337 20 3 C20.34057617 5.36010742 20.34057617 5.36010742 20.29296875 8.10546875 C20.28330078 9.08837891 20.27363281 10.07128906 20.26367188 11.08398438 C20.23853516 12.10814453 20.21339844 13.13230469 20.1875 14.1875 C20.16719727 15.74114258 20.16719727 15.74114258 20.14648438 17.32617188 C20.11111805 19.88433612 20.05731096 22.44223329 20 25 C13.4 25 6.8 25 0 25 C0 16.75 0 8.5 0 0 Z " fill="#F7213C" transform="translate(393,201)"/>
<path d="M0 0 C1.13888672 0.12181641 1.13888672 0.12181641 2.30078125 0.24609375 C-0.35693904 6.1392996 -3.186804 10.39126105 -7.82421875 14.87109375 C-8.39897949 15.43304443 -8.97374023 15.99499512 -9.56591797 16.57397461 C-18.84838933 25.42209539 -30.6637792 31.72554375 -43.69921875 32.24609375 C-44.83488281 32.29765625 -45.97054687 32.34921875 -47.140625 32.40234375 C-55.18100502 32.59706536 -62.09535099 31.90191451 -69.69921875 29.24609375 C-69.03921875 28.91609375 -68.37921875 28.58609375 -67.69921875 28.24609375 C-67.69921875 27.25609375 -67.69921875 26.26609375 -67.69921875 25.24609375 C-66.60867187 25.46265625 -66.60867187 25.46265625 -65.49609375 25.68359375 C-49.31184696 28.6714547 -33.87371577 27.42332164 -19.69921875 18.24609375 C-13.5742985 13.50690206 -8.65412244 8.34537051 -4.3671875 1.8984375 C-2.69921875 0.24609375 -2.69921875 0.24609375 0 0 Z " fill="#6B8190" transform="translate(145.69921875,247.75390625)"/>
<path d="M0 0 C0.33 0 0.66 0 1 0 C1.00634791 1.94584866 1.00634791 1.94584866 1.01282406 3.93100739 C1.11381501 34.82505494 1.21958221 65.71908213 1.33111694 96.61309329 C1.34488414 100.42760894 1.35861159 104.24212474 1.37231445 108.05664062 C1.37504276 108.81594256 1.37777106 109.57524449 1.38058204 110.35755557 C1.42448354 122.60186829 1.46517621 134.84618964 1.50465261 147.09051734 C1.54532569 159.68350447 1.58951759 172.27647583 1.63687855 184.8694396 C1.66592133 192.62043228 1.69232055 200.37142423 1.71517897 208.12243766 C1.73309542 214.09719103 1.75594175 220.07191592 1.78049088 226.04664612 C1.78972914 228.47474624 1.7974496 230.90285277 1.80341911 233.33096313 C1.84285341 248.91018072 2.22901223 264.43925229 3 280 C1.43344388 276.9863506 0.51745773 274.34485928 -0.125 271 C-0.29257813 270.154375 -0.46015625 269.30875 -0.6328125 268.4375 C-1 266 -1 266 -1 262 C-0.67 261.67 -0.34 261.34 0 261 C-0.33 261 -0.66 261 -1 261 C-0.67 174.87 -0.34 88.74 0 0 Z " fill="#F4C6C9" transform="translate(1,124)"/>
</svg>
